<?xml version="1.0" encoding="utf-8"?>
<!-- Generator: Adobe Illustrator 18.0.0, SVG Export Plug-In . SVG Version: 6.00 Build 0)  -->
<!DOCTYPE svg PUBLIC "-//W3C//DTD SVG 1.1//EN" "http://www.w3.org/Graphics/SVG/1.1/DTD/svg11.dtd">
<svg version="1.1" xmlns="http://www.w3.org/2000/svg" xmlns:xlink="http://www.w3.org/1999/xlink" x="0px" y="0px"
	 viewBox="0 0 76.5 17.5" enable-background="new 0 0 76.5 17.5" xml:space="preserve">
<g id="Layer_1">
</g>
<g id="Layer_2">
</g>
<g id="Layer_5">
</g>
<g id="Layer_3">
</g>
<g id="Layer_6">
</g>
<g id="Layer_4">
</g>
<g id="Layer_7">
</g>
<g id="Layer_8">
</g>
<g id="perfil">
	<g>
		<g>
			<polygon fill="#FFFFFF" points="11.8,2.3 11.8,16.3 10.8,16.3 10.8,9.6 8.8,8.5 8.8,6.3 7.8,6.3 7.8,7.1 2.8,2.7 2.8,2.3 			"/>
		</g>
		<g>
			<path fill="#FFFFFF" d="M21.8,3.3l-3.4,10.1h-1L14,3.3h1.2l2.7,8.3l2.7-8.3H21.8z"/>
			<path fill="#FFFFFF" d="M23.6,3.5c0.1,0.1,0.2,0.3,0.2,0.5c0,0.2-0.1,0.3-0.2,0.5c-0.1,0.1-0.3,0.2-0.5,0.2
				c-0.2,0-0.3-0.1-0.5-0.2c-0.1-0.1-0.2-0.3-0.2-0.5c0-0.2,0.1-0.3,0.2-0.5c0.1-0.1,0.3-0.2,0.5-0.2C23.3,3.3,23.5,3.3,23.6,3.5z
				 M22.6,13.3h1.1V5.9h-1.1V13.3z"/>
			<path fill="#FFFFFF" d="M25.4,3.3h1.1v10.1h-1.1V3.3z"/>
			<path fill="#FFFFFF" d="M35.4,13.3h-1.1v-1c-0.7,0.7-1.6,1.1-2.6,1.1c-1,0-1.9-0.4-2.7-1.1c-0.7-0.8-1.1-1.7-1.1-2.7
				c0-1.1,0.4-2,1.1-2.7c0.7-0.7,1.6-1.1,2.7-1.1c1,0,1.9,0.4,2.6,1.1v-1h1.1V13.3z M31.6,12.3c0.7,0,1.3-0.3,1.9-0.8
				c0.5-0.5,0.8-1.2,0.8-1.9v0c0-0.7-0.3-1.4-0.8-1.9c-0.5-0.5-1.1-0.8-1.9-0.8c-0.7,0-1.3,0.3-1.9,0.8C29.2,8.2,29,8.9,29,9.6
				c0,0.7,0.3,1.4,0.8,1.9C30.3,12,30.9,12.3,31.6,12.3z"/>
			<path fill="#FFFFFF" d="M40.3,5.8c0.9,0,1.8,0.4,2.4,1.1c0.7,0.7,1,1.6,1,2.7v3.8h-1.1V9.5c0-0.7-0.2-1.4-0.7-1.9
				c-0.5-0.5-1-0.8-1.6-0.8c-0.6,0-1.2,0.3-1.7,0.8C38.2,8.2,38,8.8,38,9.5v3.8h-1.1V3.3H38v3.5C38.6,6.1,39.4,5.8,40.3,5.8z"/>
			<path fill="#FFFFFF" d="M48.6,5.8c1,0,1.9,0.4,2.7,1.1c0.7,0.8,1.1,1.7,1.1,2.7c0,1-0.4,2-1.1,2.7c-0.7,0.7-1.6,1.1-2.7,1.1
				c-1,0-1.9-0.4-2.7-1.1c-0.7-0.8-1.1-1.7-1.1-2.7c0-1.1,0.4-2,1.1-2.7C46.7,6.2,47.5,5.8,48.6,5.8z M48.6,12.3
				c0.7,0,1.3-0.3,1.9-0.8c0.5-0.5,0.8-1.2,0.8-1.9c0-0.7-0.3-1.4-0.8-1.9c-0.5-0.5-1.1-0.8-1.9-0.8c-0.7,0-1.3,0.3-1.9,0.8
				C46.2,8.2,46,8.9,46,9.6c0,0.7,0.3,1.4,0.8,1.9C47.2,12,47.9,12.3,48.6,12.3z"/>
			<path fill="#FFFFFF" d="M60,13.3h-1.1v-0.9c-0.6,0.6-1.3,0.9-2.2,0.9c-0.9,0-1.7-0.4-2.3-1.1c-0.6-0.7-1-1.6-1-2.7V5.8h1.1v3.8
				c0,0.7,0.2,1.4,0.6,1.9c0.4,0.5,0.9,0.8,1.5,0.8c0.6,0,1.1-0.3,1.5-0.8c0.4-0.5,0.6-1.1,0.6-1.9V5.9H60V13.3z"/>
			<path fill="#FFFFFF" d="M63.6,6.9c-0.3,0-0.6,0.1-0.9,0.3c-0.2,0.2-0.4,0.5-0.4,0.8c0,0.3,0.1,0.5,0.3,0.7c0.2,0.1,0.5,0.3,1,0.4
				c0.7,0.2,1.2,0.4,1.4,0.6c0.5,0.4,0.7,0.9,0.7,1.6c0,0.6-0.2,1.1-0.7,1.5c-0.5,0.4-1,0.6-1.7,0.6c-0.6,0-1.2-0.2-1.7-0.6
				c-0.5-0.4-0.7-0.9-0.7-1.5h1.1c0,0.3,0.1,0.5,0.4,0.8c0.2,0.2,0.5,0.3,0.9,0.3c0.3,0,0.6-0.1,0.9-0.3c0.2-0.2,0.4-0.5,0.4-0.8
				c0-0.3-0.1-0.5-0.3-0.7c-0.2-0.1-0.5-0.3-1.1-0.4C62.8,10,62.3,9.8,62,9.5c-0.5-0.4-0.7-0.9-0.7-1.6c0-0.6,0.2-1.1,0.7-1.6
				c0.5-0.4,1-0.6,1.7-0.6c0.6,0,1.2,0.2,1.7,0.6c0.5,0.4,0.7,1,0.7,1.6h-1.1c0-0.3-0.1-0.5-0.4-0.8C64.2,7,63.9,6.9,63.6,6.9z"/>
			<path fill="#FFFFFF" d="M70.6,5.8c1,0,1.9,0.4,2.7,1.1c0.7,0.8,1.1,1.7,1.1,2.7v0.6h-6.3c0.1,0.6,0.4,1.1,0.9,1.5
				c0.5,0.4,1,0.6,1.7,0.6c0.5,0,0.9-0.1,1.4-0.4c0.4-0.3,0.7-0.6,1-1.1l1,0.5c-0.3,0.6-0.8,1.1-1.4,1.5c-0.6,0.4-1.2,0.6-1.9,0.6
				c-1,0-1.9-0.4-2.7-1.1c-0.7-0.8-1.1-1.7-1.1-2.7c0-1.1,0.4-2,1.1-2.7C68.7,6.2,69.6,5.8,70.6,5.8z M73.2,9
				c-0.1-0.6-0.4-1.1-0.9-1.5c-0.5-0.4-1-0.6-1.7-0.6c-0.6,0-1.2,0.2-1.7,0.6c-0.5,0.4-0.8,0.9-0.9,1.5H73.2z"/>
		</g>
		<g>
			<path fill="#FFFFFF" d="M17.4,14.3c-0.2,0-0.3,0.1-0.4,0.2c-0.1,0.1-0.2,0.3-0.2,0.4c0,0.2,0.1,0.3,0.2,0.4
				c0.1,0.1,0.3,0.2,0.4,0.2c0.1,0,0.2,0,0.3-0.1c0.1,0,0.2-0.1,0.2-0.2l0.1,0.1c-0.1,0.1-0.2,0.2-0.3,0.2c-0.1,0.1-0.2,0.1-0.4,0.1
				c-0.2,0-0.4-0.1-0.5-0.2c-0.1-0.1-0.2-0.3-0.2-0.5c0-0.2,0.1-0.4,0.2-0.5c0.1-0.2,0.3-0.2,0.5-0.2c0.1,0,0.2,0,0.4,0.1
				c0.1,0.1,0.2,0.1,0.3,0.2l-0.1,0.1c-0.1-0.1-0.1-0.1-0.2-0.2C17.6,14.4,17.5,14.3,17.4,14.3z"/>
			<path fill="#FFFFFF" d="M19,15.2h-0.5l-0.2,0.5h-0.2l0.6-1.5h0.1l0.6,1.5h-0.2L19,15.2z M18.5,15h0.4l-0.2-0.6L18.5,15z"/>
			<path fill="#FFFFFF" d="M19.9,14.3c-0.1,0-0.1,0-0.2,0.1c-0.1,0.1-0.1,0.1-0.1,0.2c0,0.1,0,0.1,0.1,0.2c0,0,0.1,0.1,0.2,0.1
				c0.1,0,0.2,0.1,0.3,0.1c0.1,0.1,0.1,0.2,0.1,0.3c0,0.1,0,0.2-0.1,0.3c-0.1,0.1-0.2,0.1-0.3,0.1c-0.1,0-0.2,0-0.3-0.1
				c-0.1-0.1-0.1-0.2-0.1-0.3h0.2c0,0.1,0,0.1,0.1,0.2c0.1,0,0.1,0.1,0.2,0.1c0.1,0,0.1,0,0.2-0.1c0.1-0.1,0.1-0.1,0.1-0.2
				c0-0.1,0-0.1-0.1-0.2c0,0-0.1-0.1-0.2-0.1c-0.1,0-0.2-0.1-0.3-0.1c-0.1-0.1-0.1-0.2-0.1-0.3c0-0.1,0-0.2,0.1-0.3
				c0.1-0.1,0.2-0.1,0.3-0.1c0.1,0,0.2,0,0.3,0.1c0.1,0.1,0.1,0.2,0.1,0.3h-0.2c0-0.1,0-0.1-0.1-0.2C20,14.4,19.9,14.3,19.9,14.3z"
				/>
			<path fill="#FFFFFF" d="M21.2,15.2h-0.5l-0.2,0.5h-0.2l0.6-1.5h0.1l0.6,1.5h-0.2L21.2,15.2z M20.8,15h0.4L21,14.4L20.8,15z"/>
			<path fill="#FFFFFF" d="M22.1,14.3c-0.1,0-0.1,0-0.2,0.1c-0.1,0.1-0.1,0.1-0.1,0.2c0,0.1,0,0.1,0.1,0.2c0,0,0.1,0.1,0.2,0.1
				c0.1,0,0.2,0.1,0.3,0.1c0.1,0.1,0.1,0.2,0.1,0.3c0,0.1,0,0.2-0.1,0.3c-0.1,0.1-0.2,0.1-0.3,0.1c-0.1,0-0.2,0-0.3-0.1
				c-0.1-0.1-0.1-0.2-0.1-0.3h0.2c0,0.1,0,0.1,0.1,0.2c0.1,0,0.1,0.1,0.2,0.1c0.1,0,0.1,0,0.2-0.1c0.1-0.1,0.1-0.1,0.1-0.2
				c0-0.1,0-0.1-0.1-0.2c0,0-0.1-0.1-0.2-0.1c-0.1,0-0.2-0.1-0.3-0.1c-0.1-0.1-0.1-0.2-0.1-0.3c0-0.1,0-0.2,0.1-0.3
				c0.1-0.1,0.2-0.1,0.3-0.1c0.1,0,0.2,0,0.3,0.1c0.1,0.1,0.1,0.2,0.1,0.3h-0.2c0-0.1,0-0.1-0.1-0.2C22.3,14.4,22.2,14.3,22.1,14.3z
				"/>
			<path fill="#FFFFFF" d="M23.9,14.2c0.1,0,0.2,0,0.3,0.1c0.1,0.1,0.1,0.2,0.1,0.3c0,0.1,0,0.2-0.1,0.3C24.1,15,24,15,23.9,15h-0.3
				v0.7h-0.2v-1.5H23.9z M23.9,14.8c0.1,0,0.1,0,0.2-0.1c0,0,0.1-0.1,0.1-0.2c0-0.1,0-0.1-0.1-0.2c0,0-0.1-0.1-0.2-0.1h-0.3v0.5
				H23.9z"/>
			<path fill="#FFFFFF" d="M24.7,15v0.7h-0.2v-1.5H25c0.1,0,0.2,0,0.3,0.1c0.1,0.1,0.1,0.2,0.1,0.3c0,0.1,0,0.2-0.1,0.3
				C25.2,15,25.1,15,25,15l0.5,0.7h-0.2L24.8,15H24.7z M24.8,14.9c0.2,0,0.3,0,0.3-0.1c0,0,0.1-0.1,0.1-0.2c0-0.1,0-0.1-0.1-0.2
				c0-0.1-0.1-0.1-0.2-0.1h-0.3v0.5H24.8z"/>
			<path fill="#FFFFFF" d="M25.5,14.2h0.9v0.2h-0.7v0.5h0.7V15h-0.7v0.5h0.7v0.2h-0.9V14.2z"/>
			<path fill="#FFFFFF" d="M26.6,14.2h0.9v0.2h-0.7v0.5h0.7V15h-0.7v0.7h-0.2V14.2z"/>
			<path fill="#FFFFFF" d="M28.4,15.2h-0.5l-0.2,0.5h-0.2l0.6-1.5h0.1l0.6,1.5h-0.2L28.4,15.2z M28,15h0.4l-0.2-0.6L28,15z"/>
			<path fill="#FFFFFF" d="M29.6,14.9c0.1,0,0.1,0.1,0.2,0.2c0,0.1,0.1,0.1,0.1,0.2c0,0.1,0,0.2-0.1,0.3c-0.1,0.1-0.2,0.1-0.3,0.1
				h-0.5v-1.5h0.5c0.1,0,0.2,0,0.3,0.1c0.1,0.1,0.1,0.2,0.1,0.3C29.8,14.7,29.7,14.8,29.6,14.9z M29.1,14.8h0.3c0.1,0,0.1,0,0.2-0.1
				c0,0,0.1-0.1,0.1-0.2c0-0.1,0-0.1-0.1-0.2c0,0-0.1-0.1-0.2-0.1h-0.3V14.8z M29.4,15.5c0.1,0,0.1,0,0.2-0.1
				c0.1-0.1,0.1-0.1,0.1-0.2c0-0.1,0-0.1-0.1-0.2C29.5,15,29.5,15,29.4,15h-0.3v0.6H29.4z"/>
			<path fill="#FFFFFF" d="M30.2,15v0.7H30v-1.5h0.5c0.1,0,0.2,0,0.3,0.1c0.1,0.1,0.1,0.2,0.1,0.3c0,0.1,0,0.2-0.1,0.3
				C30.7,15,30.6,15,30.5,15l0.5,0.7h-0.2L30.3,15H30.2z M30.3,14.9c0.2,0,0.3,0,0.3-0.1c0,0,0.1-0.1,0.1-0.2c0-0.1,0-0.1-0.1-0.2
				c0-0.1-0.1-0.1-0.2-0.1h-0.3v0.5H30.3z"/>
			<path fill="#FFFFFF" d="M31.1,14.2h0.2v1.5h-0.2V14.2z"/>
			<path fill="#FFFFFF" d="M32.2,14.3c-0.2,0-0.3,0.1-0.4,0.2c-0.1,0.1-0.2,0.3-0.2,0.4c0,0.2,0.1,0.3,0.2,0.4
				c0.1,0.1,0.3,0.2,0.4,0.2c0.1,0,0.2,0,0.3-0.1c0.1,0,0.2-0.1,0.2-0.2l0.1,0.1c-0.1,0.1-0.2,0.2-0.3,0.2c-0.1,0.1-0.2,0.1-0.4,0.1
				c-0.2,0-0.4-0.1-0.5-0.2c-0.1-0.1-0.2-0.3-0.2-0.5c0-0.2,0.1-0.4,0.2-0.5c0.1-0.2,0.3-0.2,0.5-0.2c0.1,0,0.2,0,0.4,0.1
				c0.1,0.1,0.2,0.1,0.3,0.2l-0.1,0.1c-0.1-0.1-0.1-0.1-0.2-0.2C32.4,14.4,32.3,14.3,32.2,14.3z"/>
			<path fill="#FFFFFF" d="M33.7,15.2h-0.5L33,15.7h-0.2l0.6-1.5h0.1l0.6,1.5h-0.2L33.7,15.2z M33.3,15h0.4l-0.2-0.6L33.3,15z"/>
			<path fill="#FFFFFF" d="M34.6,14.2c0.2,0,0.4,0.1,0.5,0.2c0.1,0.1,0.2,0.3,0.2,0.5c0,0.2-0.1,0.4-0.2,0.5
				c-0.1,0.1-0.3,0.2-0.5,0.2h-0.4v-1.5H34.6z M34.6,15.5c0.2,0,0.3-0.1,0.4-0.2c0.1-0.1,0.2-0.3,0.2-0.4s-0.1-0.3-0.2-0.4
				c-0.1-0.1-0.3-0.2-0.4-0.2h-0.3v1.2H34.6z"/>
			<path fill="#FFFFFF" d="M36.3,15.2h-0.5l-0.2,0.5h-0.2l0.6-1.5h0.1l0.6,1.5h-0.2L36.3,15.2z M35.9,15h0.4L36,14.4L35.9,15z"/>
			<path fill="#FFFFFF" d="M37.2,14.3c-0.1,0-0.1,0-0.2,0.1c-0.1,0.1-0.1,0.1-0.1,0.2c0,0.1,0,0.1,0.1,0.2c0,0,0.1,0.1,0.2,0.1
				c0.1,0,0.2,0.1,0.3,0.1c0.1,0.1,0.1,0.2,0.1,0.3c0,0.1,0,0.2-0.1,0.3c-0.1,0.1-0.2,0.1-0.3,0.1c-0.1,0-0.2,0-0.3-0.1
				c-0.1-0.1-0.1-0.2-0.1-0.3h0.2c0,0.1,0,0.1,0.1,0.2c0.1,0,0.1,0.1,0.2,0.1c0.1,0,0.1,0,0.2-0.1c0.1-0.1,0.1-0.1,0.1-0.2
				c0-0.1,0-0.1-0.1-0.2c0,0-0.1-0.1-0.2-0.1c-0.1,0-0.2-0.1-0.3-0.1c-0.1-0.1-0.1-0.2-0.1-0.3c0-0.1,0-0.2,0.1-0.3
				c0.1-0.1,0.2-0.1,0.3-0.1c0.1,0,0.2,0,0.3,0.1c0.1,0.1,0.1,0.2,0.1,0.3h-0.2c0-0.1,0-0.1-0.1-0.2C37.3,14.4,37.3,14.3,37.2,14.3z
				"/>
		</g>
	</g>
</g>
<g id="Web">
</g>
<g id="Layer_12">
</g>
<g id="portada">
</g>
</svg>
